<svg xmlns="http://www.w3.org/2000/svg" viewBox="0 0 3503 3503">
  <style>path{fill:#0e1116}@media (prefers-color-scheme: dark){path{fill:#f5f4ef}}</style>
  <g transform="translate(242,1152)"><path d="M568 920H140V675H510C538 675 560 653 560 625C560 598 538 575 510 575H140V334H558C586 334 608 312 608 284C608 256 586 234 558 234H90C63 234 40 256 40 284V970C40 998 63 1020 90 1020H568C596 1020 618 998 618 970C618 942 596 920 568 920Z M1244.0 1020H808.0C781.0 1020 758.0 998 758.0 970V284C758.0 256 781.0 234 808.0 234C836.0 234 858.0 256 858.0 284V920H1244.0C1272.0 920 1294.0 942 1294.0 970C1294.0 998 1272.0 1020 1244.0 1020Z M1712.0 1020H1711.0H1485.0C1456.0 1020 1434.0 997 1434.0 970V284C1434.0 271 1439.0 258 1449.0 249C1458.0 240 1472.0 234 1485.0 234H1714.0C1769.0 234 1822.0 245 1871.0 265C1919.0 285 1963.0 314 2001.0 350C2038.0 386 2067.0 428 2088.0 476C2109.0 525 2120.0 576 2120.0 629C2120.0 681 2109.0 731 2087.0 779C2066.0 826 2037.0 868 1999.0 904C1961.0 941 1917.0 969 1869.0 989C1819.0 1009 1766.0 1020 1712.0 1020ZM1535.0 919H1714.0C1755.0 918 1794.0 910 1831.0 895C1868.0 880 1901.0 859 1929.0 832C1957.0 805 1979.0 773 1996.0 738C2012.0 703 2020.0 667 2020.0 629C2020.0 590 2012.0 552 1996.0 516C1980.0 481 1958.0 449 1930.0 422C1872.0 365 1796.0 334 1714.0 334H1535.0Z M2956.0 1016C2933.0 1026 2903.0 1018 2889.0 991L2820.0 837C2755.0 821 2690.0 820 2627.0 834C2576.0 844 2526.0 863 2477.0 893C2427.0 924 2375.0 965 2337.0 1002C2318.0 1021 2293.0 1027 2272.0 1014C2250.0 1000 2253.0 972 2263.0 949L2579.0 263C2588.0 245 2605.0 234 2625.0 234C2644.0 234 2663.0 246 2670.0 263L2981.0 949C2992.0 975 2981.0 1004 2956.0 1016ZM2624.0 404 2432.0 813C2485.0 783 2555.0 756 2611.0 745C2665.0 733 2720.0 731 2775.0 736Z"/></g>
</svg>
